<?xml version="1.0" encoding="UTF-8" standalone="no"?>
<!-- Created with Inkscape (http://www.inkscape.org/) -->

<svg
   xmlns:dc="http://purl.org/dc/elements/1.1/"
   xmlns:cc="http://creativecommons.org/ns#"
   xmlns:rdf="http://www.w3.org/1999/02/22-rdf-syntax-ns#"
   xmlns:svg="http://www.w3.org/2000/svg"
   xmlns="http://www.w3.org/2000/svg"
   xmlns:sodipodi="http://sodipodi.sourceforge.net/DTD/sodipodi-0.dtd"
   xmlns:inkscape="http://www.inkscape.org/namespaces/inkscape"
   width="128.25531"
   height="128.75644"
   id="svg3340"
   version="1.1"
   inkscape:version="0.48.3.1 r9886"
   sodipodi:docname="uiologo.pdf">
  <defs
     id="defs3342" />
  <sodipodi:namedview
     id="base"
     pagecolor="#ffffff"
     bordercolor="#666666"
     borderopacity="1.0"
     inkscape:pageopacity="0.0"
     inkscape:pageshadow="2"
     inkscape:zoom="3.959798"
     inkscape:cx="84.540097"
     inkscape:cy="44.020745"
     inkscape:document-units="px"
     inkscape:current-layer="layer1"
     showgrid="false"
     fit-margin-top="0"
     fit-margin-left="0"
     fit-margin-right="0"
     fit-margin-bottom="0"
     inkscape:window-width="1624"
     inkscape:window-height="1030"
     inkscape:window-x="54"
     inkscape:window-y="-3"
     inkscape:window-maximized="1" />
  <metadata
     id="metadata3345">
    <rdf:RDF>
      <cc:Work
         rdf:about="">
        <dc:format>image/svg+xml</dc:format>
        <dc:type
           rdf:resource="http://purl.org/dc/dcmitype/StillImage" />
        <dc:title></dc:title>
      </cc:Work>
    </rdf:RDF>
  </metadata>
  <g
     inkscape:label="Layer 1"
     inkscape:groupmode="layer"
     id="layer1"
     transform="translate(-310.87235,-467.98397)">
    <path
       inkscape:connector-curvature="0"
       d="m 362.55517,595.38807 c 34.2675,7.17875 67.44375,-14.91625 75.0375,-49.83499 7.60875,-34.9875 -13.77125,-68.04 -48.58125,-75.9575 -35.285,-8.025 -69.16875,14.78 -76.705,49.29 -7.53625,34.51125 15.42375,69.20499 50.24875,76.50249"
       style="fill:#000000;fill-opacity:1;fill-rule:nonzero;stroke:none"
       id="path46" />
    <path
       inkscape:connector-curvature="0"
       d="m 375.31267,595.07182 c 34.94875,-0.12125 63.17875,-28.45999 63.0525,-63.29624 -0.12625,-34.83625 -28.56,-62.98 -63.5075,-62.85875 -34.94875,0.12125 -63.1775,28.46 -63.0525,63.29625 0.12625,34.83625 28.56,62.97999 63.5075,62.85874"
       style="fill:#ffffff;fill-opacity:1;fill-rule:nonzero;stroke:none"
       id="path48" />
    <path
       inkscape:connector-curvature="0"
       d="m 375.28017,580.87932 c 27.09,0 49.0525,-21.93874 49.0525,-49.00249 0,-27.0625 -21.9625,-49.00125 -49.0525,-49.00125 -27.09125,0 -49.05375,21.93875 -49.05375,49.00125 0,27.06375 21.9625,49.00249 49.05375,49.00249"
       style="fill:#ffffff;fill-opacity:1;fill-rule:nonzero;stroke:none"
       id="path50" />
    <g
       id="g52"
       transform="matrix(0.1263275,0,0,-0.12367225,10.536418,950.80557)">
      <path
         inkscape:connector-curvature="0"
         d="m 2887.28,2991.18 c 214.44,0 388.29,177.4 388.29,396.23 0,218.82 -173.85,396.22 -388.29,396.22 -214.45,0 -388.3,-177.4 -388.3,-396.22 0,-218.83 173.85,-396.23 388.3,-396.23 z"
         style="fill:none;stroke:#000000;stroke-width:5.49197006;stroke-linecap:butt;stroke-linejoin:miter;stroke-miterlimit:4;stroke-opacity:1;stroke-dasharray:none"
         id="path54" />
    </g>
    <path
       inkscape:connector-curvature="0"
       d="m 370.71892,485.11183 c -0.325,0.04 -0.31125,-0.0275 -1.0775,0.39625 -0.89125,0.4925 -1.59125,2.095 -1.70625,3.17 -0.11625,1.07625 -0.045,3.40125 -0.17375,3.9075 -0.11625,0.4525 0.115,1.1325 0.52,1.415 0.46625,0.32625 1.33,1.3025 1.33,1.3025 0,0 0.2975,0.5225 -0.5775,1.01875 -5.78375,3.28375 -11.56625,7.47375 -15.2675,23.44 0,0 -0.3525,1.1125 -0.15125,1.54 0.15375,0.325 0.72875,0.725 0.72875,0.725 0,0 -4.0075,8.57 -5.205,11.09625 -1.56375,3.30125 -1.425,5.13875 -0.81,6.68125 0.48,1.2025 0.69375,1.81125 0.3475,2.94375 -0.3475,1.1325 -1.15625,2.83125 0,5.20875 1.1575,2.3775 1.735,3.17 1.61875,5.20875 -0.115,2.0375 -0.23125,4.86875 1.04125,7.2475 1.2725,2.3775 2.7725,4.625 2.31375,5.66125 -0.955,2.15624 0.69375,2.49124 0.57875,3.39624 -0.11625,0.90625 -0.57875,2.37875 -0.4625,3.3975 0.115,1.02 0.5775,1.8125 0.5775,1.8125 0,0 -3.12125,-1.34125 -5.08875,-2.265 -4.9125,-2.3075 -10.8725,-8.26624 -10.8725,-8.26624 0,0 3.81625,4.18999 9.715,8.94499 0.96625,0.77875 6.015,3.17125 7.05625,4.0775 1.04125,0.905 2.31375,2.15125 3.47,2.60375 1.15625,0.4525 5.6675,0.56625 5.6675,0.56625 l 11.335,1.01875 c 5.0975,-0.31375 10.87875,-1.55625 15.65375,-3.175 9.6775,-3.27875 15.57625,-9.05375 15.57625,-9.05375 0,0 -11.56375,8.18875 -15.66125,7.60875 -2.01125,-0.285 -2.84625,-0.9525 -2.84625,-0.9525 l -0.23,-16.57624 c 0,0 1.7525,-0.06 3.46875,-1.85625 1.7875,-1.87125 1.505,-4.19 1.505,-4.19 0,0 1.61875,0.22625 2.775,-1.585 1.1575,-1.8125 0.11625,-3.17125 1.62,-3.96375 1.50375,-0.7925 2.21375,-0.905 2.23125,-4.755 0.0237,-5.09625 1.4875,-44.95375 1.4875,-44.95375 l -1.52125,0 0,-2.71875 -3.0075,0 0,2.71875 -9.83125,0 0,-2.83125 -3.12375,0 c 0,0 0,0.34 0,1.1325 0,0.7925 -0.3475,1.69875 -1.85,1.81125 -1.50375,0.1125 -3.095,-1.72625 -3.095,-1.72625 0,0 0.63625,-0.0288 0.665,-0.7925 0.03,-0.765 -0.20125,-0.96375 -0.0288,-1.04875 0.17375,-0.0838 0.31875,-0.16875 0.31875,-0.59375 0,-0.425 0.43375,-0.22625 0.69375,-0.51 0.33,-0.3575 0.26,-0.7075 0.0575,-1.52875 -0.2025,-0.82125 -0.49125,-1.38625 -0.43375,-1.7825 0.0588,-0.39625 0.43375,-0.56625 0.37625,-0.935 -0.0575,-0.3675 -0.4025,-0.82375 -0.4625,-1.38625 -0.0937,-0.87125 0.32875,-0.3925 0.1175,-1.30875 -0.13,-0.56375 -0.75375,-1.325 -0.8975,-1.4375 -0.145,-0.11375 0.0863,-0.7075 -0.0875,-0.85 -0.17375,-0.14125 -1.24375,-0.14125 -1.24375,-0.14125 0,0 -0.0288,-0.22625 -0.43375,-0.2825 -0.405,-0.0562 -1.0125,0.25375 -1.21375,0.42375 -0.2025,0.17 -0.0288,-0.255 -0.72375,-0.22625 -0.69375,0.0288 -0.66625,0.15 -1.41625,0.19875 -0.2675,0.0175 -0.6375,0.165 -0.7375,0.1425 -0.13,-0.03 -1.02375,0.0462 -1.475,0.1975 -0.5925,0.1975 -1.0125,0.665 -1.13375,0.67875"
       style="fill:#000000;fill-opacity:1;fill-rule:nonzero;stroke:none"
       id="path56" />
    <path
       inkscape:connector-curvature="0"
       d="m 382.74017,499.89433 17.75438,0 0,-1.2456 -17.75438,0 0,1.2456 z"
       style="fill:#ffffff;fill-opacity:1;fill-rule:nonzero;stroke:none"
       id="path58" />
    <path
       inkscape:connector-curvature="0"
       d="m 388.34392,508.33058 0,7.6375 0.80375,0 0,-7.33625 -0.80375,-0.30125"
       style="fill:#ffffff;fill-opacity:1;fill-rule:nonzero;stroke:none"
       id="path60" />
    <path
       inkscape:connector-curvature="0"
       d="m 389.14767,503.58558 0,-3.9225 -0.7875,0 0,4.0975 0.7875,-0.175"
       style="fill:#ffffff;fill-opacity:1;fill-rule:nonzero;stroke:none"
       id="path62" />
    <path
       inkscape:connector-curvature="0"
       d="m 389.81767,503.36558 0,-3.7025 0.7875,0 0,3.2875 -0.7875,0.415"
       style="fill:#ffffff;fill-opacity:1;fill-rule:nonzero;stroke:none"
       id="path64" />
    <path
       inkscape:connector-curvature="0"
       d="m 390.60517,508.81183 0,7.15625 -0.80375,0 0,-7.2125 0.80375,0.0562"
       style="fill:#ffffff;fill-opacity:1;fill-rule:nonzero;stroke:none"
       id="path66" />
    <path
       inkscape:connector-curvature="0"
       d="m 391.27517,502.65183 0,-2.98875 0.7875,0 0,2.80125 -0.7875,0.1875"
       style="fill:#ffffff;fill-opacity:1;fill-rule:nonzero;stroke:none"
       id="path68" />
    <path
       inkscape:connector-curvature="0"
       d="m 392.09767,508.77308 0,7.195 -0.84,0 0,-7.1775 0.84,-0.0175"
       style="fill:#ffffff;fill-opacity:1;fill-rule:nonzero;stroke:none"
       id="path70" />
    <path
       inkscape:connector-curvature="0"
       d="m 392.80267,503.87433 0,-4.21125 0.85625,0 0,4.44875 -0.85625,-0.2375"
       style="fill:#ffffff;fill-opacity:1;fill-rule:nonzero;stroke:none"
       id="path72" />
    <path
       inkscape:connector-curvature="0"
       d="m 393.62392,509.24808 0,6.72 -0.82125,0 0,-6.98625 0.82125,0.26625"
       style="fill:#ffffff;fill-opacity:1;fill-rule:nonzero;stroke:none"
       id="path74" />
    <path
       inkscape:connector-curvature="0"
       d="m 395.15142,506.75058 0,-7.0875 -0.82125,0 0,4.8225 c 0,0 0.91125,0.61875 0.63625,1.22375 -0.18,0.39625 -0.5125,0.2775 -0.34125,0.345 0.39,0.15625 0.4425,0.445 0.52625,0.69625"
       style="fill:#ffffff;fill-opacity:1;fill-rule:nonzero;stroke:none"
       id="path76" />
    <path
       inkscape:connector-curvature="0"
       d="m 394.31267,509.28183 0,6.68625 0.83875,0 0,-6.87875 c -0.4925,0.48125 -0.83875,0.1925 -0.83875,0.1925"
       style="fill:#ffffff;fill-opacity:1;fill-rule:nonzero;stroke:none"
       id="path78" />
    <path
       inkscape:connector-curvature="0"
       d="m 386.03642,504.70683 0,-9.06375 -1.6775,0 0,9.94125 1.6775,-0.8775"
       style="fill:#ffffff;fill-opacity:1;fill-rule:nonzero;stroke:none"
       id="path80" />
    <path
       inkscape:connector-curvature="0"
       d="m 368.62892,499.49308 c -1.6075,0.2025 -2.83375,1.18875 -3.29625,2.09375 -0.51625,1.01 -0.405,3.51125 -0.11625,4.9825 0.2525,1.28375 3.29625,4.19 4.62625,4.87 1.21875,0.6225 1.37625,0.59875 1.37625,0.59875 0,0 0.0812,-0.485 -0.035,-0.76875 -0.115,-0.2825 -0.925,-1.1325 -1.21375,-1.52875 -0.28875,-0.39625 -1.2725,-1.47125 -1.6775,-1.755 -0.405,-0.2825 -0.5775,-0.17 -0.75125,0.0562 -0.17375,0.2275 0.1625,-0.84875 0.45125,-0.90625 0.28875,-0.0562 0.5675,-0.10375 0.8675,0.22625 1.85,2.03875 4.51125,4.47375 8.84875,6.795 2.045,1.095 2.9575,0.8675 3.1225,0.7925 0.8675,-0.39625 5.635,-5.7225 6.36125,-6.9075 0.52125,-0.84875 1.50375,-0.51 1.50375,-0.51 0,0 0.36375,0.27 0.7525,0.39625 0.69375,0.2275 2.4025,-0.0337 2.775,0.0575 0.29,0.07 0.53625,0.155 1.63375,0.6075 0.97375,0.4025 1.1575,-0.25375 0.53625,-0.46625 -0.50125,-0.17125 -0.72375,-0.51 -0.40625,-0.35375 0.8475,0.41375 1.24375,-0.0713 0.2025,-0.6225 -0.4375,-0.2325 -0.90125,-0.6975 -0.4475,-0.43875 0.795,0.4525 1.2,0.255 0.57875,-0.28375 -0.3125,-0.27 -0.8825,-0.82125 -0.44875,-0.75 0.6275,0.1025 0.7375,-0.2125 0.0137,-0.60875 -0.15875,-0.0875 -0.5375,-0.45375 -1.02625,-0.6225 -0.49125,-0.17 -1.09875,-0.31125 -1.54625,-0.35375 0,0 0.65375,-0.23875 0.76625,-0.3675 0.5775,-0.66625 0.015,-0.885 -0.85375,-0.34 -0.56375,0.35375 -1.89375,0.9475 -2.70375,1.09 -0.59375,0.10375 -6.1875,3 -6.9975,3.51 -0.81,0.51 -1.85,1.415 -1.85,1.415 0,0 -0.7525,-0.85 -1.5625,-1.6425 -0.80875,-0.79125 -2.6025,-2.15125 -2.94875,-2.3775 -0.3475,-0.22625 -0.925,-0.50875 -0.925,-0.50875 0,0 -0.23125,-1.3025 -1.1,-2.435 -0.86625,-1.1325 -2.7175,-3.17125 -4.51,-2.94375"
       style="fill:#ffffff;fill-opacity:1;fill-rule:nonzero;stroke:none"
       id="path82" />
    <path
       inkscape:connector-curvature="0"
       d="m 398.87517,511.72183 0,-16.07875 -1.6775,0 0.0238,14.125 0,0 c 0,0 -0.0238,6.2 -5.5175,6.2 -5.49375,0 -5.78375,-5.10625 -5.78375,-5.10625 l -1.7925,2.095 c 0,0 -0.28875,1.2 0.0587,1.9925 0.34625,0.7925 1.27125,3.79375 1.33,4.75625 0.0575,0.96125 -0.0587,4.01875 -0.0587,4.01875 l 1.50375,4.86875 0.2425,0.5675 8.78,0 c 0,0 0.23125,-3.0575 0.405,-5.09625 0.1725,-2.0375 0.965,-5.40875 1.5025,-6.62375 0.7525,-1.69875 0.98375,-5.71875 0.98375,-5.71875"
       style="fill:#ffffff;fill-opacity:1;fill-rule:nonzero;stroke:none"
       id="path84" />
    <path
       inkscape:connector-curvature="0"
       d="m 371.19392,499.40308 c 1.54375,0.99 2.1925,1.775 2.93,3.01625 0.7225,1.2175 0.80875,1.755 0.8375,1.755 0.03,0 1.6775,0.8775 3.0375,2.03875 1.35875,1.16 1.8375,2.04375 1.8375,2.04375 1.40625,-1.4625 3.395,-2.14625 3.395,-2.14625 0,0 0.11125,-1.8225 -0.28875,-3.5325 -0.405,-1.72625 -1.64875,-2.6725 -3.065,-2.72875 -1.5325,-0.0613 -2.04875,0.61125 -2.9725,1.0425 -1.09375,0.51 -2.465,0.24875 -3.7925,-0.39 -0.46625,-0.225 -1.87,-1.09625 -1.91875,-1.09875"
       style="fill:#ffffff;fill-opacity:1;fill-rule:nonzero;stroke:none"
       id="path86" />
    <path
       inkscape:connector-curvature="0"
       d="m 377.19392,484.31433 c -0.66875,0.10375 -1.30125,0.42375 -1.30125,0.42375 0,0 -0.8675,0.39625 -1.1575,1.07625 -0.18375,0.4325 -0.7225,0 -0.7225,0 0,0 -0.56625,0.37375 -0.6825,0.71375 -0.115,0.33875 -0.65875,0.33375 -0.65875,0.33375 0,0 -0.59625,0.4525 -0.6825,0.7925 -0.0863,0.34 -0.57875,0 -0.57875,0 0,0 -0.405,0.22625 -0.54875,0.76375 -0.145,0.53875 -0.81,0.19875 -0.81,0.19875 0,0 -0.26,-0.17 -0.3475,0.65125 -0.0863,0.82125 -0.0925,0.99625 -0.0925,0.99625 0,0 -0.2025,0.1975 -0.78,0.39625 -0.57875,0.19875 -0.81,0.75875 0.0288,0.475 0.83875,-0.2825 1.07,-0.5775 1.07,-0.5775 0,0 0.03,0.04 0.7225,-0.0275 0.57875,-0.0575 1.0125,-0.5725 1.0125,-0.5725 0,0 -0.0737,-0.32625 0.56125,-0.39625 1.04,-0.11375 1.17375,-0.595 1.17375,-0.595 0,0 0.19125,-0.305 0.6825,-0.475 0.49125,-0.17 0.82125,-0.62875 0.82125,-0.62875 0,0 0.2325,-0.38125 0.43375,-0.4525 0.525,-0.1875 0.75125,-0.595 0.75125,-0.595 0,0 0.2025,-0.2825 0.6075,-0.4525 0.56125,-0.235 1.0125,-0.6225 1.0125,-0.6225 0,0 -0.31875,-0.11375 0.40375,-0.595 0.72375,-0.48125 0.63625,-0.74125 0.63625,-0.74125 0,0 -0.3775,-0.0588 -0.86625,0.0675 -0.38375,0.0987 -0.63625,0.385 -0.63625,0.385 l -0.0525,-0.5425"
       style="fill:#ffffff;fill-opacity:1;fill-rule:nonzero;stroke:none"
       id="path88" />
    <path
       inkscape:connector-curvature="0"
       d="m 373.52767,484.55683 1.18125,0.265 -0.90875,0.58375 -1.03625,-0.40625 0.76375,-0.4425"
       style="fill:#ffffff;fill-opacity:1;fill-rule:nonzero;stroke:none"
       id="path90" />
    <path
       inkscape:connector-curvature="0"
       d="m 371.95392,485.05558 c 0,0 0.3475,0.39625 0.55,0.48125 0.2025,0.085 0.4625,0.255 0.4625,0.255 l -0.665,0.565 -0.26,-0.6225 -0.0875,-0.67875"
       style="fill:#ffffff;fill-opacity:1;fill-rule:nonzero;stroke:none"
       id="path92" />
    <path
       inkscape:connector-curvature="0"
       d="m 370.55392,485.54808 0.70625,-0.0113 0.405,1.075 -0.11625,0.56625 c 0,0 -0.82125,-0.10125 -0.82125,-0.215 0,-0.1125 -0.17375,-1.415 -0.17375,-1.415"
       style="fill:#ffffff;fill-opacity:1;fill-rule:nonzero;stroke:none"
       id="path94" />
    <path
       inkscape:connector-curvature="0"
       d="m 369.61142,486.04683 0.4925,-0.205 0.115,1.925 c 0,0 -0.69375,0.51625 -0.75125,0.60125 -0.0587,0.085 -0.17375,-0.3975 -0.145,-0.765 0.0288,-0.3675 0.28875,-1.55625 0.28875,-1.55625"
       style="fill:#ffffff;fill-opacity:1;fill-rule:nonzero;stroke:none"
       id="path96" />
    <path
       inkscape:connector-curvature="0"
       d="m 368.83142,488.05558 c 0,0 -0.0587,0.7925 0.0575,1.02 0.11625,0.22625 0.26,0.65125 0.26,0.65125 l -0.405,0.2825 c 0,0 -0.28875,-0.34 -0.34625,-0.82125 -0.0575,-0.48125 0.28875,-1.1325 0.28875,-1.1325 l 0.145,0"
       style="fill:#ffffff;fill-opacity:1;fill-rule:nonzero;stroke:none"
       id="path98" />
    <path
       inkscape:connector-curvature="0"
       d="m 368.77767,491.79933 c -0.20125,0.4525 -0.20125,0.93375 0.0875,1.64125 0.28875,0.7075 0.81,0.93375 0.81,0.93375 l 0.76375,-0.25375 c 0,0 -0.37625,-0.17 -0.57875,-0.7075 -0.2025,-0.53875 -0.43375,-1.19 -0.3175,-1.4725 0.115,-0.28375 -0.6175,-0.4725 -0.765,-0.14125"
       style="fill:#ffffff;fill-opacity:1;fill-rule:nonzero;stroke:none"
       id="path100" />
    <path
       inkscape:connector-curvature="0"
       d="m 370.24767,491.39683 c -0.17375,0.57 -0.0288,1.52875 0.55,1.98125 0.5775,0.4525 1.05375,0.10125 0.70625,-0.4075 -0.3775,-0.55375 -0.60625,-0.9875 -0.52125,-1.3875 0.11625,-0.5375 -0.6475,-0.47 -0.735,-0.18625"
       style="fill:#ffffff;fill-opacity:1;fill-rule:nonzero;stroke:none"
       id="path102" />
    <path
       inkscape:connector-curvature="0"
       d="m 371.53142,491.05058 c -0.0875,0.36875 0.0862,0.87875 0.34625,1.3875 0.35,0.685 1.1575,0.11375 0.84,-0.4525 -0.31875,-0.56625 -0.31875,-0.56625 -0.37625,-1.01875 -0.0575,-0.45375 -0.7,-0.385 -0.81,0.0838"
       style="fill:#ffffff;fill-opacity:1;fill-rule:nonzero;stroke:none"
       id="path104" />
    <path
       inkscape:connector-curvature="0"
       d="m 373.16892,489.86808 -0.2025,0.31125 c 0,0 0.2025,0.9625 0.75125,1.0475 0.55,0.085 1.30125,-0.6225 1.30125,-0.85 0,-0.22625 -0.54875,-0.1125 -0.80875,-0.22625 -0.26125,-0.1125 -0.3475,-0.2825 -0.435,0.0288 -0.0863,0.31125 -0.34625,0.595 -0.4625,0.22625 -0.115,-0.3675 -0.14375,-0.5375 -0.14375,-0.5375"
       style="fill:#ffffff;fill-opacity:1;fill-rule:nonzero;stroke:none"
       id="path106" />
    <path
       inkscape:connector-curvature="0"
       d="m 375.84017,488.60058 c -0.14375,-0.31125 -0.675,-0.11875 -0.73375,0.31 -0.0575,0.425 10e-4,0.57125 0.28875,0.6175 0.34625,0.0563 0.8675,0.0288 0.95375,-0.595 0.0275,-0.1975 -0.0413,-0.2675 0.26125,-0.17 0.34625,0.11375 0.80875,0.0288 0.9825,-0.16875 0.24125,-0.275 0.26875,-0.62125 -0.006,-0.98 -0.1725,-0.22625 -0.61875,-0.24 -0.89625,-0.0275 -0.26,0.1975 -0.10375,0.7075 -0.2775,0.7075 -0.17375,0 -0.4275,0.61625 -0.5725,0.30625"
       style="fill:#ffffff;fill-opacity:1;fill-rule:nonzero;stroke:none"
       id="path108" />
    <path
       inkscape:connector-curvature="0"
       d="m 378.55267,487.30808 c 0,0 -0.2475,0.015 -0.20125,0.51 0.0238,0.2675 0.5775,0.34 0.69375,0.19875 0.115,-0.1425 0.54875,-0.48125 0.28875,-0.87875 -0.26,-0.395 -0.405,-0.2825 -0.57875,-0.2825 -0.17375,0 -0.14375,0.17 0.0875,0.255 0.23125,0.085 -0.29,0.1975 -0.29,0.1975"
       style="fill:#ffffff;fill-opacity:1;fill-rule:nonzero;stroke:none"
       id="path110" />
    <path
       inkscape:connector-curvature="0"
       d="m 378.20017,485.98933 c -0.21875,-0.0263 -0.83875,0.56625 -0.83875,0.7925 0,0.22625 0.6075,0.11375 0.6075,0.11375 0,0 0.0288,-0.56625 0.3175,-0.62375 0.29,-0.0563 0.2025,0.11375 0.37625,0.17 0.17375,0.0575 0.405,-0.42375 0.28875,-0.67875 -0.115,-0.255 -0.5775,-0.28375 -0.5775,-0.28375 0,0 0.0575,0.53875 -0.17375,0.51"
       style="fill:#ffffff;fill-opacity:1;fill-rule:nonzero;stroke:none"
       id="path112" />
    <path
       inkscape:connector-curvature="0"
       d="m 378.57642,488.50933 c -0.9,0.685 -1.07,0.84875 -1.53375,0.90625 -0.46125,0.0563 -0.75125,0 -0.75125,0 0,0 0.145,0.14125 -0.0288,0.395 -0.17375,0.255 -0.3175,0.085 -0.405,0.39625 -0.0863,0.3125 -0.11625,0.82125 -0.78125,1.275 -0.665,0.4525 -0.9825,0.67875 -1.06875,0.65 -0.0875,-0.0275 -0.11125,0.4525 -0.11125,0.4525 0,0 0.22625,0.28375 -0.0337,0.45375 -0.26,0.17 -0.43375,0.48125 -0.6075,0.68 -0.17375,0.1975 -1.07,0.22625 -1.07,0.22625 0,0 -0.0863,0.28375 -0.0288,0.39625 0.0575,0.1125 -0.405,0.085 -0.49125,0.0563 -0.0875,-0.0275 -0.145,0.19875 -0.11625,0.28375 0.0288,0.085 -0.0288,0.17 -0.34625,0.17 -0.31875,0 -0.46375,0.0563 -0.46375,0.0563 0,0 0.2325,1.1325 0.0587,1.5 -0.17375,0.3675 -0.81,0.99125 -0.81,0.99125 0,0 2.92125,2.915 5.03125,2.915 2.11125,0 3.615,-1.5 3.615,-1.5 0,0 -0.17375,-0.255 -0.55,-0.48125 -0.375,-0.22625 -0.6075,-0.6225 -0.925,-1.18875 -0.3175,-0.56625 -0.2075,-0.7475 -0.67,-1.17125 -0.46375,-0.425 -0.735,-0.33125 -0.735,-0.33125 0,0 0.26625,1.55375 0.555,2.0625 0.29,0.51 -0.22625,1.22375 -0.54375,0.5725 -0.31875,-0.65125 -1.205,-3.29125 -1.11,-3.3825 0.115,-0.11375 0.5375,0.07 1.405,0.26875 0.8675,0.1975 1.475,0.65 2.02375,0.6225 0.55,-0.0288 0.78125,-0.31125 0.81,-0.73625 0.0288,-0.425 -0.0937,-0.5675 0.075,-0.6625 0.2025,-0.1125 0.23625,-0.35625 -0.11,-0.39625 -2.37625,-0.27125 0.0962,-0.6975 -0.15625,-0.5325 0.17375,-0.11375 0.4,0.0112 0.48625,0.04 0.0863,0.0275 0.1175,0.0738 0.19625,0.005 0.15375,-0.13125 0.0875,-0.20875 -0.0288,-0.23625 -0.23125,-0.0575 -0.51375,-0.0838 -0.61875,-0.24375 -0.2025,-0.3125 0.1275,-0.40875 0.1275,-0.40875 0,0 0.10625,0.2 0.2575,0.195 0.11375,-0.002 0.565,0.37125 0.83625,0.21875 0.3025,-0.1725 0.26875,-0.40875 0.115,-1.07 -0.085,-0.36875 -0.29,-0.8325 -0.405,-1.22875 -0.0962,-0.3275 -0.13875,-0.605 -0.13875,-0.71875 0,0 -0.39,0.0138 -0.4625,0.11375 -0.11875,0.1625 -0.0838,1.08 -0.0838,1.08 0,0 -0.38125,-0.0987 -0.76875,-0.2725 -0.3725,-0.16625 -1.22125,-0.24125 -1.22125,-0.24125 l 1.04625,-0.465 -0.75125,0.007 0.2175,-0.33625 c 0,0 0.505,-0.38125 0.91,-0.35375 0.405,0.0288 0.595,0.07 0.91125,0.1 0.30375,0.0275 0.49125,-0.0575 0.49125,-0.28375 0,-0.22625 -0.1725,-0.9625 -0.34625,-1.0475 -0.17375,-0.085 -0.37625,-0.1975 -0.89625,0.19875"
       style="fill:#ffffff;fill-opacity:1;fill-rule:nonzero;stroke:none"
       id="path114" />
    <path
       inkscape:connector-curvature="0"
       d="m 367.85392,497.83308 c 0,0 -0.035,0.58375 0.34125,0.66875 0.375,0.085 1.1275,-0.22625 1.21375,-0.65125 0.0875,-0.425 -0.14875,-0.8525 -0.4325,-0.59375 -0.27,0.24375 -0.77625,0.435 -1.1225,0.57625"
       style="fill:#ffffff;fill-opacity:1;fill-rule:nonzero;stroke:none"
       id="path116" />
    <path
       inkscape:connector-curvature="0"
       d="m 366.95142,498.24683 c -9.0225,7.02125 -11.21375,17.96 -11.91375,20.49625 -0.72,2.60875 -0.5125,2.40375 0.54375,2.86375 1.1175,0.4875 1.88625,2.1175 1.88625,2.1175 0,0 2.835,-10.6625 3.46875,-13.02125 2.8,-10.4125 6.13125,-11.89 6.13125,-11.89 l -0.11625,-0.56625"
       style="fill:#ffffff;fill-opacity:1;fill-rule:nonzero;stroke:none"
       id="path118" />
    <path
       inkscape:connector-curvature="0"
       d="m 364.50017,507.43558 c 0,0 0.08,3.89 0.485,5.985 0.405,2.095 2.00125,3.125 3.21625,1.9925 1.21375,-1.1325 0.415,-1.0075 0.53125,-1.29 0.115,-0.28375 0.38125,-0.385 0.67,-0.15875 0.29,0.22625 0.6375,0.6225 0.98375,0.68 0.3475,0.0562 0.57875,-0.11375 0.81,-0.34 0.23125,-0.22625 0.17375,-0.17 0.57875,0 0.40375,0.17 2,-0.1475 2.17375,-0.1475 0.17375,0 0.99375,0.0113 1.22625,0.0113 0.23125,0 -0.7525,-0.56625 -1.50375,-1.1325 -0.65625,-0.49375 -1.595,-1.04125 -1.295,-0.63375 0.2725,0.37 -0.1975,0.83625 -0.1975,0.83625 0,0 -0.34625,0.3525 -1.56125,-0.38375 -1.21375,-0.73625 -4.99625,-3.445 -5.37875,-4.4725 -0.23125,-0.6225 -0.5075,-0.94625 -0.5075,-0.94625 l -0.23125,0"
       style="fill:#ffffff;fill-opacity:1;fill-rule:nonzero;stroke:none"
       id="path120" />
    <path
       inkscape:connector-curvature="0"
       d="m 367.76142,516.53433 c -2.25625,3.62375 -2.245,6.97375 -2.6025,12.56875 -0.0575,0.90625 -0.81,7.02125 -0.81,7.02125 l 1.09875,-0.51 c 0,0 0.3475,-2.3775 0.4625,-3.0575 0.11625,-0.68 1.2725,-6.5675 1.2725,-6.5675 l 0.81125,-0.2375 c 0,0 -0.61,3.9225 -0.7525,4.755 -0.11625,0.68 -0.81,4.58625 -0.81,4.58625 0,0 0.0575,-0.1575 0.69375,-0.3275 0.63625,-0.17 3.29625,-0.0575 4.28,0 0.9825,0.0562 1.85,-0.28375 2.02375,-0.68 0.17375,-0.39625 0.34625,-11.38 0.52,-11.55 0.17375,-0.17 0.625,-0.0562 0.625,0.17 0,0.22625 -0.23125,10.9275 -0.23125,10.9275 0,0 0.705,-0.39625 1.4575,-0.62375 0.75125,-0.22625 1.44625,-0.39625 2.1975,-0.39625 0.75125,0 1.6775,-0.16875 1.85125,-1.075 0.1725,-0.90625 -1.47,-16 -1.47,-16 0,0 -1.76875,-0.30625 -2.6375,-0.1925 -0.86625,0.1125 -1.48,0.22625 -1.48,0.22625 0,0 -0.1725,1.58625 -0.1725,1.86875 0,0.28375 -0.66,0.45375 -0.66,-0.0562 0,-0.51 0.11625,-1.86875 0.11625,-1.86875 0,0 -1.44625,0 -1.73625,0.0562 -0.28875,0.0562 -1.09875,0.56625 -1.09875,0.56625 l -0.40375,0 c 0,0 -0.18625,-0.0937 -0.38125,-0.0225 0,0 -0.63625,1.585 -0.92625,2.66125 -0.28875,1.075 -1.295,1.66375 -0.8325,0.1925 0.4625,-1.4725 0.5775,-1.925 0.52,-2.3225 -0.0575,-0.395 -0.28875,-0.33875 -0.28875,-0.33875 0,0 0,0 -0.63625,0.22625"
       style="fill:#ffffff;fill-opacity:1;fill-rule:nonzero;stroke:none"
       id="path122" />
    <path
       inkscape:connector-curvature="0"
       d="m 379.00392,515.75433 1.8275,15.3875 c 0,0 0.3475,-0.41375 0.81,-0.64 0.42625,-0.20875 0.925,-0.1525 0.925,-0.1525 l -2.695,-14.19875 -0.8675,-0.39625"
       style="fill:#ffffff;fill-opacity:1;fill-rule:nonzero;stroke:none"
       id="path124" />
    <path
       inkscape:connector-curvature="0"
       d="m 380.58892,516.24058 c 0,0 3.01875,13.93875 3.07625,14.7875 0.0575,0.84875 0,0.84875 -0.52,1.18875 -0.52125,0.34 -0.64125,0.87875 0.0575,0.7925 0.80875,-0.0987 0.69375,-0.33875 1.2,-0.43875 0.32,-0.0625 0.385,-0.35375 0.385,-0.35375 l -3.71375,-16.21375 -0.485,0.2375"
       style="fill:#ffffff;fill-opacity:1;fill-rule:nonzero;stroke:none"
       id="path126" />
    <path
       inkscape:connector-curvature="0"
       d="m 381.71142,515.68558 3.9675,16.61625 c 0,0 0.0337,-0.002 0.32375,0.0538 0.28875,0.0575 0.9375,0.065 0.9375,0.065 l -4.60375,-17.3025 -0.625,0.5675"
       style="fill:#ffffff;fill-opacity:1;fill-rule:nonzero;stroke:none"
       id="path128" />
    <path
       inkscape:connector-curvature="0"
       d="m 381.81517,531.19808 c -1.1175,0.48125 -1.6775,1.52875 -1.6775,1.52875 0,0 1.2825,-0.12375 2.08125,-0.4525 1.09875,-0.45375 1.04125,-1.69875 -0.40375,-1.07625"
       style="fill:#ffffff;fill-opacity:1;fill-rule:nonzero;stroke:none"
       id="path130" />
    <path
       inkscape:connector-curvature="0"
       d="m 355.38517,523.49808 -4.97375,9.73875 c 0,0 1.61875,-1.585 3.355,-3.3975 1.73375,-1.81125 3.9325,-3.9625 1.61875,-6.34125"
       style="fill:#ffffff;fill-opacity:1;fill-rule:nonzero;stroke:none"
       id="path132" />
    <path
       inkscape:connector-curvature="0"
       d="m 352.49392,533.34933 c 0,0 -2.8525,1.745 -3.23875,2.7175 -0.81,2.03875 0.69375,4.30375 0.69375,4.30375 l 2.545,-7.02125"
       style="fill:#ffffff;fill-opacity:1;fill-rule:nonzero;stroke:none"
       id="path134" />
    <path
       inkscape:connector-curvature="0"
       d="m 355.54642,530.33808 c 0,0 -5.08875,12.11625 -5.6675,13.475 -0.5775,1.35875 -0.81625,1.9275 -0.115,3.28375 1.07875,2.08625 1.00875,1.81375 1.36375,3.16 0.3825,1.44125 0.27,1.92125 0.62,-0.1025 0.46875,-2.7175 11.68125,-38.9525 11.68125,-38.9525 l -0.2475,-0.68 -7.13,20.9825 -0.40625,-0.6 -0.0987,-0.56625"
       style="fill:#ffffff;fill-opacity:1;fill-rule:nonzero;stroke:none"
       id="path136" />
    <path
       inkscape:connector-curvature="0"
       d="m 360.94267,521.18808 c 0,0 -6.7775,23.17875 -6.8925,24.19875 -0.11625,1.01875 -2.8625,9.8175 -1.325,14.2225 0.93125,2.67375 2.07,4.37 2.07,4.37 l 1.1675,-0.9625 c 0,0 -2.54375,-3.62375 -2.3125,-8.37875 0.23125,-4.75625 1.51625,-9.73875 1.51625,-9.73875 0,0 -0.5,4.86875 -0.59125,7.2475 -0.29,7.545 2.545,9.7825 2.545,9.7825 l 2.24375,-2.10625 c 0,0 -3.16875,-4.28 -2.9375,-11.52625 0.28875,-9.0575 4.74125,-26.61 4.74125,-26.61 l -0.225,-0.49875"
       style="fill:#ffffff;fill-opacity:1;fill-rule:nonzero;stroke:none"
       id="path138" />
    <path
       inkscape:connector-curvature="0"
       d="m 363.13517,516.36433 c 0,0 -5.51625,21.08 -5.55125,31.32125 -0.025,7.04375 2.555,10.41625 2.555,10.41625 0,0 0.225,0.6425 0.67125,0.1475 0.4325,-0.48125 1.8625,-2.81875 1.8625,-2.81875 0,0 -3.47125,-4.30375 -3.12375,-10.0775 0.3475,-5.775 3.47,-26.045 3.47,-26.045 l 0.11625,-2.94375"
       style="fill:#ffffff;fill-opacity:1;fill-rule:nonzero;stroke:none"
       id="path140" />
    <path
       inkscape:connector-curvature="0"
       d="m 364.06017,518.96933 c 0,0 -3.60875,21.06125 -3.52875,27.2925 0.055,4.21375 1.9675,5.19125 1.9675,5.19125 l 1.56125,-12.215 c 0,0 -1.1575,0.56625 -1.1575,-1.8125 0,-2.3775 0.695,-7.92625 0.695,-7.92625 l 0.4625,-10.53"
       style="fill:#ffffff;fill-opacity:1;fill-rule:nonzero;stroke:none"
       id="path142" />
    <path
       inkscape:connector-curvature="0"
       d="m 366.42017,536.47558 c 0,0 -1.50375,9.7375 -1.85125,11.88875 -0.34625,2.15125 -0.5775,6.00125 -0.34625,7.58625 0.23125,1.58625 0.41625,3.8825 -1.20375,5.14125 -1.15375,0.89625 -1.40625,0.44 -0.69375,-0.4525 0.5075,-0.63625 0.8375,-0.925 0.815,-1.51125 -0.0225,-0.5775 -0.27375,-0.265 -0.815,0.37875 -1.15,1.36375 -5.4775,5.77875 -6.37875,6.48875 -0.6775,0.53125 -0.7925,1.66375 -0.44625,2.34374 0.3475,0.67875 5.09,6.635 6.2475,7.7675 1.15625,1.1325 2.3825,2.39 4.76375,2.96875 2.29875,0.56 3.36,0.11375 3.36,0.11375 0,0 6.0975,-12.07499 5.26875,-27.06499 l -0.3175,-17.7325 c 0,0 -0.815,0.43 -1.1625,0.99625 -0.3475,0.56625 -0.23125,1.245 -0.23125,1.245 0,0 -0.11625,9.73875 -0.11625,12.45625 0,2.7175 -0.34625,5.66125 -0.69375,6.45375 -0.34625,0.79375 -1.15625,0.79375 -0.5775,-0.7925 0.5775,-1.585 0.58875,-4.65375 0.58875,-4.65375 l 0.105,-14.59625 -1.22625,-0.0675 c 0,0 -0.925,10.4175 -1.2725,10.7575 -0.34625,0.34 -0.50875,-1.065 -0.50875,-1.065 l 0.69375,-9.285 -1.1325,0.34 -1.38875,12.115 -0.9025,-0.385 1.04125,-11.43625 c 0,0 -0.1625,0.2725 -0.85625,0.045 -0.69375,-0.225 -0.7625,-0.0437 -0.7625,-0.0437"
       style="fill:#ffffff;fill-opacity:1;fill-rule:nonzero;stroke:none"
       id="path144" />
    <path
       inkscape:connector-curvature="0"
       d="m 376.18142,534.09683 c 0,0 0.46375,21.28875 0.3475,23.32625 -0.5375,9.46625 -3.40875,18.94499 -4.58125,20.81374 0,0 -0.065,0.345 0.74375,0.57125 0.81,0.2275 2.935,-0.165 2.935,-0.165 2.845,-10.57625 2.66125,-18.90374 2.545,-20.38249 -0.11625,-1.47125 -1.04125,-23.5525 -1.04125,-23.5525 l -0.94875,-0.61125"
       style="fill:#ffffff;fill-opacity:1;fill-rule:nonzero;stroke:none"
       id="path146" />
    <path
       inkscape:connector-curvature="0"
       d="m 378.56517,533.46308 c 0,0 0.69375,24.57375 0.4625,29.89375 -0.23125,5.32124 -0.925,13.47499 -1.62,14.60749 0,0 -0.2325,0.47125 0.80875,0.58375 1.04125,0.1125 2.84625,0.0725 2.84625,0.0725 l -1.62,-45.04499 -0.8775,-0.1125"
       style="fill:#ffffff;fill-opacity:1;fill-rule:nonzero;stroke:none"
       id="path148" />
    <path
       inkscape:connector-curvature="0"
       d="m 380.13767,533.68933 1.85,44.43249 c 2.63625,0.425 2.66,-0.72375 2.66,-0.72375 l -1.3875,-43.48249 -0.8325,0.36125 0.76375,30.80125 -0.85625,0.09 -0.69375,-31.93125 -1.50375,0.4525"
       style="fill:#ffffff;fill-opacity:1;fill-rule:nonzero;stroke:none"
       id="path150" />
    <path
       inkscape:connector-curvature="0"
       d="m 384.53267,534.36808 1.15625,42.23624 c 0.46375,-0.1125 1.04125,-0.33875 1.04125,-0.33875 l -0.69375,-41.32999 -1.50375,-0.5675"
       style="fill:#ffffff;fill-opacity:1;fill-rule:nonzero;stroke:none"
       id="path152" />
    <path
       inkscape:connector-curvature="0"
       d="m 387.84142,535.27433 0.4625,22.3075 c 1.50375,0.1125 2.475,-0.7925 1.78125,-2.60375 l -0.11625,-20.61 c 0,0 -0.855,0.79375 -2.1275,0.90625"
       style="fill:#ffffff;fill-opacity:1;fill-rule:nonzero;stroke:none"
       id="path154" />
    <path
       inkscape:connector-curvature="0"
       d="m 391.42642,533.80308 -0.34625,19.0225 c 0.66875,-1.22625 1.8275,-0.515 2.89625,-1.10875 0.9175,-0.50875 1.21375,-1.50875 0.2725,-2.6275 -0.53625,-0.6375 -0.3475,-2.3775 -0.3475,-2.3775 l 0.3475,-13.24875 c 0,0 -0.855,-0.11375 -1.665,-0.11375 -0.81,0 -1.1575,0.45375 -1.1575,0.45375"
       style="fill:#ffffff;fill-opacity:1;fill-rule:nonzero;stroke:none"
       id="path156" />
    <path
       inkscape:connector-curvature="0"
       d="m 395.56767,533.46308 -0.57875,13.81375 c 0,0 0.07,-0.565 1.4575,-0.565 1.3875,0 2.42875,-1.24625 2.42875,-2.605 0,-1.35875 0.69375,-28.0825 0.69375,-28.0825 -2.31375,2.945 -2.1975,12.6825 -2.31375,15.6275 -0.035,0.905 0.12375,2.05 -1.6875,1.81125"
       style="fill:#ffffff;fill-opacity:1;fill-rule:nonzero;stroke:none"
       id="path158" />
    <path
       inkscape:connector-curvature="0"
       d="m 387.88642,531.66808 -0.595,-1.925 8.57625,0 0,1.925 -7.98125,0"
       style="fill:#ffffff;fill-opacity:1;fill-rule:nonzero;stroke:none"
       id="path160" />
    <path
       inkscape:connector-curvature="0"
       d="m 355.08142,574.04307 c 0.825,1.885 1.09875,1.585 1.33,2.265 0.23125,0.67875 0.23125,1.30125 0.69375,1.755 0.4625,0.4525 0.7525,0.58 1.07,0.9475 0.33875,0.3925 0.3325,0.7225 0.79375,0.57625 0.4175,-0.13125 0.27625,0.09 0.99625,0.0262 0.17125,-0.015 0.36625,0.21375 0.74125,0.1725 0.49125,-0.0525 0.67875,0.34625 1.28125,0.21125 0.48125,-0.10875 0.375,-0.4 -10e-4,-0.71125 -0.45,-0.3725 -0.19625,-0.365 0.29,-0.0337 0.3675,0.25 0.395,0.6175 0.71,0.35875 0.72625,-0.6 0.52375,-0.91125 -0.56,-1.4625 -0.65875,-0.335 -2.77625,-2.29375 -4.04875,-3.87875 -1.2725,-1.585 -1.61875,-2.66125 -2.48625,-2.435 -0.8675,0.2275 -1.33,1.02 -0.81,2.20875"
       style="fill:#ffffff;fill-opacity:1;fill-rule:nonzero;stroke:none"
       id="path162" />
    <path
       inkscape:connector-curvature="0"
       d="m 385.40017,578.10557 c 0,0 0.52,0.50875 1.59,0.48125 1.07,-0.0288 1.0125,-0.34 1.6775,-0.39625 0.665,-0.0575 1.15625,0.085 1.35875,-0.17 0.2025,-0.255 -0.1725,-0.76375 -0.1725,-0.76375 0,0 -0.29,0.1975 -0.46375,0.16875 -0.1725,-0.0275 -1.70625,-0.6225 -1.70625,-0.6225 -0.69375,0.14125 -1.85,0.65125 -2.28375,1.3025"
       style="fill:#ffffff;fill-opacity:1;fill-rule:nonzero;stroke:none"
       id="path164" />
    <path
       inkscape:connector-curvature="0"
       d="m 419.01392,568.54807 c -1.1375,0 -2.06,-0.90374 -2.06,-2.01749 0,-1.11375 0.9225,-2.0175 2.06,-2.0175 1.13875,0 2.06125,0.90375 2.06125,2.0175 0,1.11375 -0.9225,2.01749 -2.06125,2.01749"
       style="fill:#000000;fill-opacity:1;fill-rule:nonzero;stroke:none"
       id="path166" />
    <path
       inkscape:connector-curvature="0"
       d="m 331.15392,568.54807 c -1.1375,0 -2.06125,-0.90374 -2.06125,-2.01749 0,-1.11375 0.92375,-2.0175 2.06125,-2.0175 1.13875,0 2.06125,0.90375 2.06125,2.0175 0,1.11375 -0.9225,2.01749 -2.06125,2.01749"
       style="fill:#000000;fill-opacity:1;fill-rule:nonzero;stroke:none"
       id="path168" />
    <path
       inkscape:connector-curvature="0"
       d="m 400.16642,500.64933 c -0.625,0.46 -0.7575,0.76625 -1.24875,1.0875 -0.4325,0.2825 -0.44875,1.685 1.5275,0.47625 1.66625,-1.01875 0,-1.7675 -0.27875,-1.56375"
       style="fill:#000000;fill-opacity:1;fill-rule:nonzero;stroke:none"
       id="path170" />
    <path
       inkscape:connector-curvature="0"
       d="m 399.49017,502.49808 c -0.48625,0.27125 -0.34625,1.4275 0.625,1.02 0.92875,-0.39 1.24875,-0.88375 1.24875,-0.88375 0,0 0.07,-1.76625 -0.555,-1.155 -0.625,0.61125 -1.31875,1.01875 -1.31875,1.01875"
       style="fill:#000000;fill-opacity:1;fill-rule:nonzero;stroke:none"
       id="path172" />
    <path
       inkscape:connector-curvature="0"
       d="m 399.75017,503.31558 c -0.625,0.20375 -0.81125,1.1475 0.3125,1.0375 0.695,-0.0687 0.76375,-0.34 1.31875,-0.815 0.555,-0.47625 -0.2425,-1.3775 -0.7975,-0.76625 -0.26125,0.2875 -0.83375,0.54375 -0.83375,0.54375"
       style="fill:#000000;fill-opacity:1;fill-rule:nonzero;stroke:none"
       id="path174" />
    <path
       inkscape:connector-curvature="0"
       d="m 399.78517,504.13058 c -0.625,0.20375 -0.485,1.58 0.41625,1.1725 0.52,-0.23375 0.8125,-0.44125 1.04125,-0.815 0.41625,-0.68 -0.2775,-1.1725 -0.695,-0.8325 -0.415,0.34 -0.7625,0.475 -0.7625,0.475"
       style="fill:#000000;fill-opacity:1;fill-rule:nonzero;stroke:none"
       id="path176" />
    <path
       inkscape:connector-curvature="0"
       d="m 399.43767,501.09183 c -0.62625,0.46 -0.75875,0.76625 -1.25,1.0875 -0.4325,0.2825 -0.4475,1.685 1.5275,0.47625 1.66625,-1.02 0,-1.7675 -0.2775,-1.56375"
       style="fill:#000000;fill-opacity:1;fill-rule:nonzero;stroke:none"
       id="path178" />
    <path
       inkscape:connector-curvature="0"
       d="m 398.76017,502.94058 c -0.485,0.27125 -0.34625,1.4275 0.625,1.01875 0.92875,-0.38875 1.25,-0.8825 1.25,-0.8825 0,0 0.0687,-1.76625 -0.55625,-1.155 -0.625,0.61125 -1.31875,1.01875 -1.31875,1.01875"
       style="fill:#000000;fill-opacity:1;fill-rule:nonzero;stroke:none"
       id="path180" />
    <path
       inkscape:connector-curvature="0"
       d="m 399.02017,503.75808 c -0.62375,0.20375 -0.81125,1.1475 0.31375,1.03625 0.69375,-0.0675 0.7625,-0.33875 1.3175,-0.815 0.555,-0.475 -0.2425,-1.37625 -0.7975,-0.765 -0.26125,0.2875 -0.83375,0.54375 -0.83375,0.54375"
       style="fill:#000000;fill-opacity:1;fill-rule:nonzero;stroke:none"
       id="path182" />
    <path
       inkscape:connector-curvature="0"
       d="m 399.05517,504.57308 c -0.625,0.20375 -0.485,1.58 0.41625,1.1725 0.52,-0.235 0.8125,-0.4425 1.04125,-0.815 0.41625,-0.68 -0.2775,-1.1725 -0.69375,-0.8325 -0.41625,0.33875 -0.76375,0.475 -0.76375,0.475"
       style="fill:#000000;fill-opacity:1;fill-rule:nonzero;stroke:none"
       id="path184" />
    <path
       inkscape:connector-curvature="0"
       d="m 399.62642,501.30433 c -0.55625,0.40875 -0.69375,0.68 -1.04,0.90625 -0.3475,0.22625 -0.70875,1.16875 0.925,0.17 1.3875,-0.85 0.34625,-1.24625 0.115,-1.07625"
       style="fill:#ffffff;fill-opacity:1;fill-rule:nonzero;stroke:none"
       id="path186" />
    <path
       inkscape:connector-curvature="0"
       d="m 399.16392,503.00308 c -0.40375,0.22625 -0.5775,0.905 0.2325,0.56625 0.77375,-0.325 1.3875,-0.83875 1.3875,-0.83875 0,0 0,-1.08625 -0.52125,-0.57625 -0.52,0.50875 -1.09875,0.84875 -1.09875,0.84875"
       style="fill:#ffffff;fill-opacity:1;fill-rule:nonzero;stroke:none"
       id="path188" />
    <path
       inkscape:connector-curvature="0"
       d="m 399.45392,503.85183 c -0.52125,0.17 -0.89125,0.84 0.0175,0.595 0.46125,-0.125 0.32,0.0213 1.2375,-0.76375 0.4625,-0.3975 0.04,-0.94625 -0.4225,-0.4375 -0.2175,0.24 -0.8325,0.60625 -0.8325,0.60625"
       style="fill:#ffffff;fill-opacity:1;fill-rule:nonzero;stroke:none"
       id="path190" />
    <path
       inkscape:connector-curvature="0"
       d="m 399.51142,504.70183 c -0.52,0.17 -0.69375,1.01875 0.0575,0.67875 0.43375,-0.195 0.6775,-0.36875 0.8675,-0.67875 0.3475,-0.56625 0.0575,-0.68 -0.28875,-0.39625 -0.3475,0.2825 -0.63625,0.39625 -0.63625,0.39625"
       style="fill:#ffffff;fill-opacity:1;fill-rule:nonzero;stroke:none"
       id="path192" />
    <path
       inkscape:connector-curvature="0"
       d="m 321.73392,560.73183 c -0.16375,-0.46875 -0.34875,-0.9875 -0.70375,-1.81 -0.35375,-0.82125 -0.60375,-1.3125 -0.83125,-1.755 l 0.3875,-0.16 0.125,0.29125 c 0.18,0.41625 0.52625,0.69 0.95625,0.51375 l 4.3475,-1.79375 c 1.7,-0.7025 1.21875,-2.34875 0.8425,-3.22125 -0.82125,-1.90875 -1.975,-2.05875 -3.03,-1.6225 l -4.26125,1.7575 c -0.43,0.1775 -0.4725,0.61125 -0.2925,1.02875 l 0.12625,0.29125 -0.38875,0.15875 c -0.20125,-0.55625 -0.38125,-1.0625 -0.555,-1.4675 -0.175,-0.40375 -0.41875,-0.88375 -0.685,-1.41375 l 0.3875,-0.16 0.125,0.29125 c 0.17875,0.41625 0.525,0.69 0.955,0.51375 l 3.85375,-1.59 c 2.43125,-1.00375 3.69875,0.29 4.4925,2.135 0.89375,2.07375 1.2025,3.85125 -0.86375,4.70375 l -4.43375,1.82875 c -0.43,0.17875 -0.47125,0.61125 -0.29125,1.02875 l 0.125,0.29125 -0.3875,0.16"
       style="fill:#000000;fill-opacity:1;fill-rule:nonzero;stroke:none"
       id="path194" />
    <path
       inkscape:connector-curvature="0"
       d="m 317.07267,546.32808 c -0.23125,0.24625 -0.18,0.61375 -0.11625,0.9925 l 0.0225,0.135 -0.41375,0.0675 c -0.035,-0.41125 -0.0663,-0.80875 -0.13625,-1.215 -0.0725,-0.43375 -0.17875,-0.8475 -0.28375,-1.26125 l 5.0075,-6.9175 -0.005,-0.0275 -4.7,0.76375 c -0.78375,0.12625 -0.835,0.525 -0.76,0.97125 l 0.0812,0.47375 -0.415,0.0675 c -0.08,-0.6825 -0.11875,-1.12125 -0.215,-1.69 -0.0913,-0.54125 -0.2,-0.96875 -0.32125,-1.4775 l 0.415,-0.0675 0.0525,0.31125 c 0.075,0.4475 0.255,0.8075 1.0375,0.68 l 7.14375,-1.16 0.075,0.44625 -5.975,8.04875 0.004,0.0275 5.7025,-0.92625 c 0.72625,-0.1175 0.82375,-0.52375 0.74875,-0.97 l -0.0812,-0.47375 0.415,-0.0663 c 0.08,0.68125 0.11875,1.12 0.21,1.66125 0.0962,0.56875 0.205,0.99625 0.32625,1.505 l -0.415,0.0675 -0.0525,-0.31125 c -0.075,-0.4475 -0.30125,-0.8 -1.02625,-0.6825 l -6.325,1.0275"
       style="fill:#000000;fill-opacity:1;fill-rule:nonzero;stroke:none"
       id="path196" />
    <path
       inkscape:connector-curvature="0"
       d="m 315.93642,531.75183 c -0.4675,-0.009 -0.685,0.37125 -0.695,0.82375 l -0.006,0.315 -0.42,-0.009 c 0.045,-0.4925 0.0913,-1.04 0.11,-1.9325 0.0188,-0.89125 -0.005,-1.44125 -0.03,-1.935 l 0.42,0.008 -0.006,0.31625 c -0.009,0.4525 0.1925,0.84125 0.66,0.85 l 6.235,0.12375 c 0.46625,0.009 0.685,-0.37125 0.69375,-0.82375 l 0.006,-0.31625 0.42,0.009 c -0.0437,0.49375 -0.0913,1.04125 -0.10875,1.9325 -0.0188,0.89125 0.005,1.44125 0.03,1.93625 l -0.42125,-0.009 0.007,-0.315 c 0.009,-0.45375 -0.19375,-0.84125 -0.66,-0.85125 l -6.235,-0.1225"
       style="fill:#000000;fill-opacity:1;fill-rule:nonzero;stroke:none"
       id="path198" />
    <path
       inkscape:connector-curvature="0"
       d="m 316.37142,525.05558 c -0.74375,0.23 -0.89875,0.425 -1.03625,1.1675 l -0.41375,-0.0738 c 0.1425,-0.575 0.2825,-1.135 0.40875,-1.81 0.135,-0.72875 0.24,-1.4775 0.33125,-2.15875 l 0.4125,0.0738 -0.085,0.46 c -0.0575,0.31 -0.115,0.62 0.13625,0.665 0.1275,0.0225 0.36,-0.0187 0.68625,-0.11375 l 5.85375,-1.66125 0.005,-0.0263 -4.81125,-3.355 c -0.41875,-0.29875 -0.5175,-0.34375 -0.64375,-0.36625 -0.2875,-0.0512 -0.39625,0.40375 -0.48125,0.86125 l -0.0475,0.2575 -0.41375,-0.0738 c 0.1275,-0.49375 0.2775,-1.10875 0.37,-1.6075 0.1375,-0.92375 0.0987,-0.52625 0.1725,-1.3075 l 0.41375,0.0737 c -0.125,0.67375 -0.0263,0.77625 0.37,1.07 l 6.79375,4.95 -0.1125,0.6075 -7.90875,2.3675"
       style="fill:#000000;fill-opacity:1;fill-rule:nonzero;stroke:none"
       id="path200" />
    <path
       inkscape:connector-curvature="0"
       d="m 325.26392,515.86308 0.1725,-0.42 c 0.17375,-0.42 0.12625,-0.8525 -0.30625,-1.02375 l -5.78125,-2.29 c -0.4325,-0.1725 -0.775,0.10625 -0.94875,0.52625 l -0.12,0.2925 -0.39,-0.15375 c 0.495,-1.1075 0.995,-2.225 1.4675,-3.37 0.46375,-1.11875 0.89875,-2.26375 1.34,-3.42 l 1.87625,0.63875 -0.23625,0.5725 c -0.94625,-0.33 -1.54625,0.0238 -2.05125,1.24375 l -0.6625,1.6025 c -0.12125,0.2925 -0.0875,0.45375 0.1725,0.5575 l 2.59875,1.02875 0.59875,-1.45 c 0.4675,-1.13125 0.52875,-1.49125 -0.445,-1.8775 l 0.18875,-0.4575 c 0.43875,0.2175 0.8675,0.43125 1.27875,0.595 0.41,0.1625 0.87,0.3 1.34125,0.4425 l -0.19,0.4575 c -0.97375,-0.38625 -1.18625,-0.085 -1.65375,1.04625 l -0.6,1.45 2.96625,1.175 c 0.26,0.1025 0.39875,0.01 0.52,-0.2825 l 0.83,-2.00875 c 0.59,-1.425 0.25875,-2.1175 -0.7775,-2.75 l 0.2525,-0.61125 c 0.635,0.47375 1.3025,0.90125 1.98625,1.29 -0.5325,1.19625 -1.11625,2.51875 -1.66875,3.8525 -0.515,1.24625 -0.95,2.39125 -1.37,3.4975 l -0.38875,-0.15375"
       style="fill:#000000;fill-opacity:1;fill-rule:nonzero;stroke:none"
       id="path202" />
    <path
       inkscape:connector-curvature="0"
       d="m 335.72517,494.09308 c 0.96125,0.96625 1.94375,1.30625 3.28875,0.0225 0.83375,-0.79375 1.37875,-1.76 0.62875,-2.51375 -0.55375,-0.5575 -1.45,-0.2775 -2.36875,0.13625 l -1.56125,0.69 c -1.07,0.47875 -2.16875,0.6325 -2.9425,-0.14625 -1.125,-1.13 -0.56875,-2.71375 0.71625,-3.93875 0.91375,-0.87125 1.73,-1.25 2.47375,-1.72 l 1.26875,1.3925 -0.5825,0.55375 c -1.01,-1.015 -2.07625,-0.49375 -2.6675,0.0713 -0.75375,0.7175 -1.26375,1.69875 -0.5875,2.37875 0.48875,0.49125 1.255,0.23875 2.13375,-0.13625 l 1.78625,-0.76 c 0.9725,-0.4175 2.13,-0.61125 2.9775,0.24 0.49625,0.5 1.45375,2.0125 -0.835,4.195 -1.03375,0.98625 -1.89875,1.31625 -2.73375,1.8725 -0.45125,-0.59125 -1.0525,-1.215 -1.5725,-1.73875 l 0.5775,-0.59875"
       style="fill:#000000;fill-opacity:1;fill-rule:nonzero;stroke:none"
       id="path204" />
    <path
       inkscape:connector-curvature="0"
       d="m 341.19892,483.58683 c -0.2675,-0.375 -0.71,-0.32375 -1.08875,-0.065 l -0.26375,0.18125 -0.24125,-0.3375 c 0.43375,-0.255 0.91375,-0.54 1.66125,-1.05125 0.74625,-0.50875 1.18625,-0.85125 1.58,-1.1625 l 0.24,0.3375 -0.26375,0.18125 c -0.38,0.25875 -0.58125,0.6475 -0.31375,1.0225 l 3.5675,5.00625 c 0.26625,0.375 0.70875,0.325 1.0875,0.0663 l 0.265,-0.18125 0.24,0.3375 c -0.43375,0.25375 -0.91375,0.54 -1.66,1.05 -0.7475,0.51 -1.18625,0.8525 -1.58125,1.16375 l -0.24,-0.33875 0.26375,-0.18 c 0.38,-0.25875 0.58125,-0.6475 0.315,-1.0225 l -3.5675,-5.0075"
       style="fill:#000000;fill-opacity:1;fill-rule:nonzero;stroke:none"
       id="path206" />
    <path
       inkscape:connector-curvature="0"
       d="m 351.32267,485.34683 0.57125,-0.2625 c 0.41875,-0.1925 0.68375,-0.5425 0.485,-0.95625 l -2.88375,-5.99875 -1.09,0.5025 c -1.2175,0.56 -1.33625,1.12 -0.92125,2.07875 l -0.60875,0.28 c -0.1375,-0.48 -0.285,-0.98 -0.60875,-1.6525 l -0.13,-0.26875 c 1.0425,-0.4425 2.35125,-1.0075 3.8725,-1.7075 1.52125,-0.70125 2.8,-1.32875 3.81125,-1.8325 l 0.13,0.26875 c 0.3225,0.6725 0.6225,1.1025 0.9125,1.5125 l -0.60875,0.28125 c -0.49,-0.925 -1.00625,-1.1925 -2.22375,-0.63125 l -1.09,0.5025 2.88375,5.99875 c 0.19875,0.41375 0.64375,0.43625 1.0625,0.24375 l 0.57,-0.2625 0.17875,0.3725 c -0.75,0.3075 -1.2725,0.51 -2.09625,0.89 -0.82375,0.38 -1.31625,0.645 -2.03625,1.01375 l -0.18,-0.3725"
       style="fill:#000000;fill-opacity:1;fill-rule:nonzero;stroke:none"
       id="path208" />
    <path
       inkscape:connector-curvature="0"
       d="m 371.70892,477.35683 c 0.0238,1.34875 0.5025,2.255 2.38,2.2225 1.16375,-0.02 2.23625,-0.36 2.2175,-1.41125 -0.015,-0.7775 -0.8625,-1.17375 -1.82125,-1.48875 l -1.62125,-0.54375 c -1.115,-0.36875 -2.0225,-0.9925 -2.0425,-2.07875 -0.0288,-1.5775 1.485,-2.35875 3.2775,-2.39 1.275,-0.0225 2.135,0.24875 3.0075,0.405 l -0.05,1.86375 -0.8125,0.015 c -0.0263,-1.4175 -1.1675,-1.7525 -1.99375,-1.7375 -1.05125,0.0188 -2.11,0.39125 -2.0925,1.34 0.0125,0.685 0.7475,1.01625 1.65,1.33125 l 1.83375,0.6425 c 1.00125,0.34875 1.98,0.98375 2.00125,2.1725 0.0125,0.6975 -0.3475,2.44125 -3.5425,2.49625 -1.4425,0.0263 -2.30375,-0.31375 -3.3025,-0.4675 0.085,-0.7325 0.0838,-1.59 0.07,-2.3225 l 0.84125,-0.0487"
       style="fill:#000000;fill-opacity:1;fill-rule:nonzero;stroke:none"
       id="path210" />
    <path
       inkscape:connector-curvature="0"
       d="m 402.01267,484.30183 c -0.74375,1.135 -0.8575,2.15 0.7225,3.1425 0.98,0.61375 2.065,0.91375 2.645,0.0288 0.4275,-0.655 -0.0538,-1.445 -0.6725,-2.2275 l -1.0425,-1.3325 c -0.7175,-0.9125 -1.12,-1.925 -0.52125,-2.84 0.86875,-1.3275 2.57125,-1.15625 4.08125,-0.20875 1.07375,0.67375 1.63625,1.365 2.2725,1.96875 l -1.0975,1.525 -0.68375,-0.43 c 0.78125,-1.19375 0.0212,-2.09125 -0.675,-2.5275 -0.885,-0.555 -1.9775,-0.82 -2.5,-0.0213 -0.37875,0.5775 0.0462,1.2525 0.61875,2.005 l 1.1625,1.53 c 0.63625,0.83375 1.09,1.8925 0.435,2.89375 -0.38375,0.58625 -1.6725,1.8425 -4.3625,0.155 -1.215,-0.7625 -1.73875,-1.5125 -2.4825,-2.1825 0.485,-0.56375 0.97,-1.2775 1.37375,-1.89375 l 0.72625,0.415"
       style="fill:#000000;fill-opacity:1;fill-rule:nonzero;stroke:none"
       id="path212" />
    <path
       inkscape:connector-curvature="0"
       d="m 408.12267,491.18558 0.3325,0.315 c 0.3325,0.315 0.76,0.435 1.085,0.10625 l 4.3375,-4.38625 c 0.325,-0.32875 0.19,-0.74375 -0.1425,-1.05875 l -0.2325,-0.22 0.2925,-0.295 c 0.33875,0.36875 0.71625,0.775 1.37125,1.395 0.65375,0.62 1.08125,0.9775 1.46875,1.29625 l -0.2925,0.295 -0.2325,-0.21875 c -0.33125,-0.315 -0.76,-0.435 -1.085,-0.10625 l -4.24,4.2875 c -0.34,0.345 -0.34,0.6 -0.0175,0.90625 l 0.745,0.705 c 1.1675,1.1075 2.3,1.895 3.7,0.755 l 0.48375,0.45875 -2.1575,1.47125 c -0.9325,-0.93125 -1.86375,-1.8625 -2.91125,-2.855 -0.98625,-0.935 -1.9075,-1.76 -2.7975,-2.555 l 0.2925,-0.29625"
       style="fill:#000000;fill-opacity:1;fill-rule:nonzero;stroke:none"
       id="path214" />
    <path
       inkscape:connector-curvature="0"
       d="m 422.52642,509.48683 0.1625,0.42375 c 0.1625,0.42375 0.4975,0.71 0.935,0.55 l 5.83875,-2.14375 c 0.4375,-0.16 0.49625,-0.5925 0.33375,-1.01625 l -0.1125,-0.295 0.39375,-0.145 c 0.4,1.1425 0.805,2.2975 1.2475,3.45375 0.4325,1.13 0.90375,2.26125 1.37875,3.405 l -1.82375,0.7725 -0.2225,-0.5775 c 0.92625,-0.38375 1.1225,-1.0425 0.65125,-2.275 l -0.62,-1.61875 c -0.11375,-0.295 -0.25,-0.39125 -0.5125,-0.295 l -2.625,0.9625 0.56125,1.465 c 0.4375,1.1425 0.6425,1.44875 1.62625,1.0875 l 0.1775,0.4625 c -0.47375,0.13 -0.9375,0.25625 -1.3525,0.40875 -0.41625,0.1525 -0.84875,0.355 -1.29375,0.5625 l -0.1775,-0.4625 c 0.98375,-0.36125 0.9325,-0.72375 0.495,-1.86625 l -0.56,-1.46375 -2.99625,1.09875 c -0.2625,0.0975 -0.30125,0.2575 -0.18875,0.5525 l 0.7775,2.03 c 0.55125,1.43875 1.27375,1.73 2.47375,1.50875 l 0.23625,0.61625 c -0.795,0.0725 -1.58125,0.2 -2.35375,0.36625 -0.435,-1.2325 -0.91875,-2.5925 -1.435,-3.94125 -0.4825,-1.25875 -0.9525,-2.39 -1.40875,-3.4825 l 0.39375,-0.14375"
       style="fill:#000000;fill-opacity:1;fill-rule:nonzero;stroke:none"
       id="path216" />
    <path
       inkscape:connector-curvature="0"
       d="m 433.66642,519.93308 c 0.2375,-0.24 0.19875,-0.60875 0.14625,-0.98875 l -0.0187,-0.13625 0.4175,-0.055 c 0.0212,0.4125 0.04,0.81125 0.0962,1.22 0.06,0.435 0.1525,0.85125 0.245,1.2675 l -5.22125,6.76625 0.004,0.0275 4.7225,-0.62375 c 0.7875,-0.1025 0.85,-0.49875 0.78875,-0.9475 l -0.065,-0.47625 0.41625,-0.055 c 0.0587,0.68375 0.0837,1.12375 0.1625,1.695 0.075,0.54375 0.17,0.975 0.275,1.48625 l -0.41625,0.055 -0.0438,-0.3125 c -0.0613,-0.44875 -0.23,-0.81375 -1.01625,-0.71 l -7.17625,0.94625 -0.0613,-0.44875 6.225,-7.86625 -0.005,-0.0275 -5.72875,0.755 c -0.72875,0.0963 -0.83875,0.49875 -0.77625,0.9475 l 0.065,0.475 -0.4175,0.055 c -0.0575,-0.68375 -0.0825,-1.12375 -0.1575,-1.6675 -0.0787,-0.57125 -0.17375,-1.00125 -0.27875,-1.51375 l 0.41625,-0.055 0.0425,0.3125 c 0.0625,0.44875 0.27625,0.80875 1.00625,0.7125 l 6.35375,-0.8375"
       style="fill:#000000;fill-opacity:1;fill-rule:nonzero;stroke:none"
       id="path218" />
    <path
       inkscape:connector-curvature="0"
       d="m 429.87642,534.19683 c -1.37375,-0.10375 -2.34125,0.27625 -2.48625,2.10875 -0.09,1.13625 0.1525,2.21375 1.22375,2.295 0.7925,0.06 1.27625,-0.72875 1.6875,-1.63375 l 0.70625,-1.52875 c 0.48125,-1.05 1.2025,-1.87625 2.30875,-1.7925 1.6075,0.1225 2.2575,1.67125 2.12,3.42125 -0.0987,1.245 -0.45625,2.0575 -0.6975,2.8925 l -1.8925,-0.22625 0.0637,-0.79375 c 1.44375,0.11 1.89125,-0.97125 1.95625,-1.7775 0.0813,-1.02625 -0.19875,-2.0925 -1.165,-2.16625 -0.69875,-0.0525 -1.10375,0.63125 -1.51125,1.4825 l -0.8275,1.725 c -0.44875,0.9425 -1.1875,1.83625 -2.3975,1.745 -0.71125,-0.0538 -2.45,-0.57125 -2.20375,-3.69 0.11125,-1.40875 0.53875,-2.215 0.79,-3.17375 0.7375,0.1525 1.61,0.2325 2.355,0.28875 l -0.03,0.82375"
       style="fill:#000000;fill-opacity:1;fill-rule:nonzero;stroke:none"
       id="path220" />
    <path
       inkscape:connector-curvature="0"
       d="m 432.87892,545.60933 c 0.45375,0.105 0.75,-0.22 0.8575,-0.66125 l 0.075,-0.30625 0.40875,0.0962 c -0.15125,0.47125 -0.31625,0.9975 -0.5275,1.865 -0.2125,0.8675 -0.30875,1.40875 -0.39125,1.8975 l -0.40875,-0.0963 0.075,-0.30625 c 0.10625,-0.44 -0.006,-0.8625 -0.46,-0.96875 l -6.065,-1.41875 c -0.455,-0.10625 -0.75,0.21875 -0.8575,0.66 l -0.075,0.30625 -0.40875,-0.0962 c 0.15125,-0.47125 0.315,-0.9975 0.5275,-1.865 0.21125,-0.8675 0.3075,-1.40875 0.39125,-1.8975 l 0.40875,0.0962 -0.075,0.30625 c -0.1075,0.44125 0.006,0.8625 0.46,0.96875 l 6.065,1.42"
       style="fill:#000000;fill-opacity:1;fill-rule:nonzero;stroke:none"
       id="path222" />
    <path
       inkscape:connector-curvature="0"
       d="m 426.44892,551.49683 c -1.2725,-0.5175 -2.3125,-0.45125 -3.0325,1.24625 -0.4475,1.05125 -0.56,2.15 0.4325,2.55375 0.7325,0.29875 1.44375,-0.30375 2.1225,-1.0375 l 1.1575,-1.2375 c 0.7925,-0.85125 1.74,-1.41625 2.765,-1 1.4875,0.60625 1.6125,2.2775 0.92375,3.89875 -0.48875,1.1525 -1.0875,1.81625 -1.5825,2.535 l -1.725,-0.79125 0.3125,-0.735 c 1.33625,0.54375 2.10625,-0.345 2.42375,-1.0925 0.40375,-0.95125 0.47875,-2.04875 -0.41625,-2.41375 -0.6475,-0.26375 -1.25,0.26375 -1.9075,0.9475 l -1.33625,1.3875 c -0.72625,0.75875 -1.7125,1.3825 -2.83375,0.92625 -0.65875,-0.2675 -2.14625,-1.29 -0.91875,-4.17875 0.55375,-1.305 1.21625,-1.94125 1.76,-2.775 0.6525,0.37 1.45625,0.7125 2.14625,0.9925 l -0.29125,0.77375"
       style="fill:#000000;fill-opacity:1;fill-rule:nonzero;stroke:none"
       id="path224" />
    <path
       inkscape:connector-curvature="0"
       d="m 339.98767,571.79182 -0.0225,-0.0162 -3.86,4.85375 c -0.28625,0.36 -0.10625,0.75875 0.25875,1.0375 l 0.255,0.1925 -0.25875,0.32625 c -0.39875,-0.34875 -0.73125,-0.645 -1.17375,-0.9825 -0.46375,-0.35375 -0.84,-0.59625 -1.28125,-0.88875 l 0.25875,-0.325 0.25375,0.19375 c 0.365,0.2775 0.80375,0.35125 1.09125,-0.009 l 4.075,-5.125 c -10e-4,-0.33375 -0.2925,-0.57 -0.6025,-0.80625 l 0.25875,-0.32375 c 0.35375,0.3125 0.74125,0.65125 1.095,0.92125 0.37625,0.28625 0.81875,0.58 1.2375,0.85625 l -1.37875,6.715 6.38875,-2.8975 c 0.2875,0.2625 0.62,0.56 1.0625,0.89625 0.42,0.32125 0.8625,0.61375 1.27125,0.88125 l -0.25875,0.325 -0.255,-0.19375 c -0.3975,-0.3025 -0.67375,-0.51375 -1.025,-0.0713 l -3.89625,4.8975 c -0.28625,0.36125 -0.10625,0.76 0.25875,1.0375 l 0.25375,0.19375 -0.2575,0.325 c -0.37625,-0.33 -0.7975,-0.69375 -1.51625,-1.2425 -0.71875,-0.5475 -1.1825,-0.8575 -1.66875,-1.18375 l 0.2575,-0.325 0.32125,0.24375 c 0.365,0.27875 0.80375,0.35125 1.09125,-0.009 l 3.85875,-4.85375 -0.0213,-0.0162 -7.47625,3.46 -0.17625,-0.13625 1.58125,-7.95125"
       style="fill:#000000;fill-opacity:1;fill-rule:nonzero;stroke:none"
       id="path226" />
    <path
       inkscape:connector-curvature="0"
       d="m 328.12142,501.36683 0.48625,-0.705 c 1.01,-1.4675 1.2725,-2.5025 0.0713,-3.295 -1.27875,-0.8425 -2.085,-0.18375 -2.89125,0.9875 l -0.1725,0.25 c -0.4775,0.695 -0.4475,0.81375 -0.0112,1.10125 l 2.5175,1.66125 z m 2.64375,1.745 c 0.3875,0.255 0.78125,0.0525 1.04,-0.32375 l 0.18,-0.26125 0.34875,0.23 c -0.31125,0.39 -0.65375,0.82625 -1.1625,1.56625 -0.51,0.73875 -0.79375,1.2125 -1.04625,1.64125 l -0.34875,-0.23 0.18,-0.26125 c 0.25875,-0.375 0.30375,-0.80875 -0.0837,-1.065 l -5.17125,-3.41125 c -0.3875,-0.25625 -0.78125,-0.0525 -1.03875,0.3225 l -0.18,0.2625 -0.34875,-0.23 c 0.31125,-0.39125 0.6525,-0.8275 1.16125,-1.56625 0.47125,-0.6825 0.84375,-1.34625 1.25,-1.9375 0.98,-1.4225 2.38125,-2.76375 3.84375,-1.79875 1.085,0.715 1.04,2.10875 0.36,3.36375 l 0.0188,0.0125 c 0.68125,-0.64125 1.66375,-0.73875 2.64125,-0.6225 1.365,0.1225 1.9775,0.11375 2.30625,-0.365 l 0.14875,-0.215 0.34875,0.23 -0.79875,1.16 c -0.48625,0.705 -0.9025,0.86 -2.825,0.58375 -1.6025,-0.23 -1.9875,-0.12 -2.50375,0.63125 l -0.55625,0.8075 2.23625,1.47625 z m 33.1175,-25.12125 -3.40625,0.79875 -0.47,2.085 c -0.0763,0.335 -0.09,0.515 -0.0687,0.60375 0.0712,0.29 0.53375,0.18 0.9975,0.0725 l 0.31375,-0.0738 0.0975,0.4 c -0.5125,0.085 -1.02375,0.17 -1.59625,0.30375 -0.545,0.1275 -1.01375,0.27375 -1.5375,0.43125 l -0.0987,-0.4 0.21875,-0.0513 c 0.5725,-0.13375 0.67625,-0.4175 0.88875,-1.255 l 1.85875,-7.59375 0.735,-0.17375 5.1875,6.11875 c 0.43,0.5225 0.665,0.71375 1.34625,0.555 l 0.0975,0.4 c -0.58,0.1 -1.215,0.21375 -1.9375,0.38375 -0.79,0.185 -1.46375,0.37875 -2.00125,0.54 l -0.0975,-0.4 0.43625,-0.1025 c 0.4225,-0.1 0.76375,-0.17875 0.70125,-0.435 -0.0362,-0.145 -0.19375,-0.3775 -0.4225,-0.665 l -1.2425,-1.5425 z m -2.53375,-3.10875 -0.75625,3.38625 2.94375,-0.69 -2.1875,-2.69625 z m 33.4375,0.0375 c 3.57,1.22625 4.22375,3.63125 3.4775,5.71375 -0.74625,2.0825 -2.79,3.56125 -6.36125,2.335 -3.57,-1.22625 -4.22375,-3.63125 -3.4775,-5.71375 0.74625,-2.0825 2.79,-3.56125 6.36125,-2.335 z m -0.1625,0.45375 c -2.01,-0.69 -3.74,0.24125 -4.5325,2.45375 -0.7925,2.21125 -0.0363,3.9975 1.97375,4.6875 2.01,0.69125 3.74,-0.2425 4.5325,-2.45375 0.7925,-2.21125 0.0362,-3.9975 -1.97375,-4.6875 z m 30.79375,23.16 c 2.0725,3.09875 1.0975,5.3975 -0.7875,6.60625 -1.885,1.20875 -4.42625,1.16625 -6.5,-1.9325 -2.07375,-3.0975 -1.09875,-5.39625 0.7875,-6.60625 1.885,-1.20875 4.42625,-1.165 6.5,1.9325 z m -0.41,0.26375 c -1.1675,-1.745 -3.12,-2.03375 -5.1225,-0.75 -2.0025,1.285 -2.51125,3.1525 -1.345,4.8975 1.1675,1.74375 3.12,2.03375 5.1225,0.74875 2.0025,-1.285 2.51125,-3.1525 1.345,-4.89625 z m -74.09625,87.28499 c -0.15625,0.37 -0.17125,0.5125 0.9825,0.97875 2.40875,0.975 4.4125,0.93125 5.46125,-1.5525 1.0875,-2.5775 -0.13125,-4.035 -2.56625,-5.02 -1.23125,-0.4975 -1.3175,-0.47 -1.4925,-0.0588 l -2.385,5.6525 z m 0.94875,-6.345 c 0.1875,-0.44375 -0.1525,-0.6425 -0.65875,-0.8475 l -0.1675,-0.0675 0.16,-0.38 c 0.62125,0.2875 1.33375,0.6125 2.13625,0.9375 0.7125,0.2875 1.71125,0.6175 2.78625,1.0525 2.6675,1.07875 4.01125,3.0325 2.95125,5.54625 -1.10625,2.62125 -3.68375,3.0875 -6.76625,1.84125 -0.7125,-0.28875 -1.61875,-0.72875 -2.47375,-1.07375 -0.69875,-0.28375 -1.37375,-0.51875 -2.0725,-0.765 l 0.16,-0.38 0.22,0.0888 c 0.7125,0.28875 1.12125,0.21875 1.30375,-0.215 l 2.42125,-5.7375"
       style="fill:#000000;fill-opacity:1;fill-rule:nonzero;stroke:none"
       id="path228" />
    <path
       inkscape:connector-curvature="0"
       d="m 371.72392,586.84557 -0.785,-0.14875 c 0.10125,-1.97375 -1.255,-2.37875 -2.50125,-2.56 -2.32875,-0.3375 -3.6625,0.9825 -3.98,3.07375 -0.305,2.0125 0.9275,3.7875 3.11625,4.105 1.22,0.1775 2.46,-0.15 3.2225,-1.06875 l 0.5775,0.30375 c -1.1125,1.3525 -2.6825,1.62125 -4.55375,1.34875 -3.34,-0.485 -4.45625,-2.65875 -4.11375,-4.90875 0.30375,-2.00125 2.05375,-4.01125 5.79625,-3.46875 1.19125,0.17375 2.4,0.615 3.46,1.09375 l -0.23875,2.23"
       style="fill:#000000;fill-opacity:1;fill-rule:nonzero;stroke:none"
       id="path230" />
    <path
       inkscape:connector-curvature="0"
       d="m 384.02017,586.23307 -0.79875,0.03 c -0.36125,-1.94375 -1.775,-2.03625 -3.03125,-1.935 -2.34625,0.19 -3.33875,1.7725 -3.16,3.88 0.17125,2.0275 1.78375,3.48 3.99,3.3025 1.22875,-0.1 2.36,-0.695 2.88875,-1.75875 l 0.63375,0.16625 c -0.76875,1.565 -2.235,2.17625 -4.12125,2.32875 -3.365,0.2725 -4.9575,-1.595 -5.14875,-3.8625 -0.17,-2.01625 1.06625,-4.365 4.8375,-4.66875 1.20125,-0.0975 2.48,0.0637 3.62375,0.2925 l 0.28625,2.225"
       style="fill:#000000;fill-opacity:1;fill-rule:nonzero;stroke:none"
       id="path232" />
    <path
       inkscape:connector-curvature="0"
       d="m 395.83642,582.87307 -0.77125,0.21 c -0.8075,-1.81125 -2.205,-1.58125 -3.405,-1.2 -2.23875,0.71375 -2.83125,2.47875 -2.1625,4.49 0.64375,1.935 2.555,2.985 4.66125,2.31375 1.1725,-0.37375 2.1325,-1.20875 2.3975,-2.36375 l 0.65375,0.02 c -0.37875,1.69625 -1.6625,2.6225 -3.46125,3.195 -3.21125,1.02375 -5.2,-0.435 -5.91875,-2.5975 -0.64,-1.925 0.01,-4.48875 3.60875,-5.635 1.14625,-0.36625 2.42875,-0.4975 3.595,-0.53375 l 0.8025,2.10125"
       style="fill:#000000;fill-opacity:1;fill-rule:nonzero;stroke:none"
       id="path234" />
    <path
       inkscape:connector-curvature="0"
       d="m 397.01767,579.47182 c 0.58125,-0.305 1.175,-0.61625 1.84625,-1.015 0.67125,-0.3975 1.26375,-0.79 1.76125,-1.125 l 0.2175,0.3525 -0.23875,0.1425 c -0.39625,0.23375 -0.63625,0.37625 -0.53875,0.5325 0.0362,0.0588 0.1625,0.105 0.44,0.2075 l 2.83375,0.97875 0.48,-2.7975 c 0.0825,-0.45 0.0813,-0.55625 0.0275,-0.645 -0.0913,-0.14625 -0.39,0.0312 -0.75,0.245 l -0.2525,0.15 -0.2175,-0.3525 c 0.46125,-0.23375 0.91125,-0.46 1.355,-0.72375 0.49125,-0.29125 0.97625,-0.61875 1.45,-0.94 l 0.2175,0.3525 c -0.755,0.5275 -0.8625,0.645 -1.05,1.63875 l -0.6225,3.17625 4.42875,1.43625 c 0.67375,0.215 0.9375,0.245 1.56125,-0.12375 l 0.2175,0.35125 c -0.67625,0.3625 -1.19875,0.63125 -1.8575,1.0225 -0.5875,0.3475 -1.15625,0.72625 -1.725,1.10375 l -0.21875,-0.3525 0.4675,-0.2775 c 0.25125,-0.14875 0.5275,-0.3125 0.43125,-0.46875 -0.055,-0.0888 -0.2,-0.13625 -0.615,-0.2775 l -3.1825,-1.06625 -0.635,3.2375 c -0.0937,0.4825 -0.11125,0.61375 -0.0513,0.71125 0.12125,0.195 0.36125,0.0538 0.82875,-0.22375 l 0.26375,-0.15625 0.2175,0.35125 c -0.46125,0.235 -1.03125,0.53125 -1.5825,0.85875 -0.6225,0.37 -0.97625,0.61875 -1.34125,0.87625 l -0.21875,-0.3525 c 0.7375,-0.45 0.915,-0.93 1.05625,-1.62875 l 0.81875,-3.84 -3.7125,-1.20625 c -0.8425,-0.27625 -1.08875,-0.27625 -1.8925,0.2 l -0.2175,-0.3525"
       style="fill:#000000;fill-opacity:1;fill-rule:nonzero;stroke:none"
       id="path236" />
    <path
       inkscape:connector-curvature="0"
       d="m 408.94767,572.83307 c -0.30875,-0.3425 -0.7425,-0.24125 -1.08875,0.0575 l -0.24125,0.21 -0.27875,-0.30875 c 0.40125,-0.30125 0.84375,-0.64 1.52625,-1.23 0.6825,-0.59125 1.07875,-0.98 1.43375,-1.33375 l 0.2775,0.30875 -0.24125,0.20875 c -0.34625,0.3 -0.5,0.70875 -0.19125,1.05125 l 4.1325,4.5725 c 0.31,0.3425 0.7425,0.24125 1.08875,-0.0588 l 0.2425,-0.20875 0.2775,0.30875 c -0.4,0.30125 -0.84375,0.63875 -1.525,1.23 -0.6825,0.59125 -1.07875,0.98 -1.43375,1.33375 l -0.27875,-0.30875 0.24125,-0.20875 c 0.34625,-0.3 0.50125,-0.70875 0.19125,-1.05125 l -4.1325,-4.5725"
       style="fill:#000000;fill-opacity:1;fill-rule:nonzero;stroke:none"
       id="path238" />
  </g>
</svg>
